<?xml version="1.0" encoding="UTF-8" standalone="no"?>
<!-- Created with Inkscape (http://www.inkscape.org/) -->

<svg
   version="1.1"
   id="svg2"
   xml:space="preserve"
   width="780.91583"
   height="192.73199"
   viewBox="0 0 780.91583 192.73199"
   sodipodi:docname="Lucid-RGB.svg"
   inkscape:version="1.1.1 (3bf5ae0d25, 2021-09-20)"
   xmlns:inkscape="http://www.inkscape.org/namespaces/inkscape"
   xmlns:sodipodi="http://sodipodi.sourceforge.net/DTD/sodipodi-0.dtd"
   xmlns="http://www.w3.org/2000/svg"
   xmlns:svg="http://www.w3.org/2000/svg"><defs
     id="defs6"><clipPath
       clipPathUnits="userSpaceOnUse"
       id="clipPath28"><path
         d="M 0,292 H 736 V 0 H 0 Z"
         id="path26" /></clipPath></defs><sodipodi:namedview
     id="namedview4"
     pagecolor="#ffffff"
     bordercolor="#666666"
     borderopacity="1.0"
     inkscape:pageshadow="2"
     inkscape:pageopacity="0.0"
     inkscape:pagecheckerboard="0"
     showgrid="false"
     fit-margin-top="0"
     fit-margin-left="0"
     fit-margin-right="0"
     fit-margin-bottom="0"
     inkscape:zoom="1.1076767"
     inkscape:cx="390.45691"
     inkscape:cy="96.598587"
     inkscape:window-width="1920"
     inkscape:window-height="1010"
     inkscape:window-x="-6"
     inkscape:window-y="-6"
     inkscape:window-maximized="1"
     inkscape:current-layer="g8" /><g
     id="g8"
     inkscape:groupmode="layer"
     inkscape:label="Lucid-RGB"
     transform="matrix(1.3333333,0,0,-1.3333333,-100.2168,290.66666)"><g
       id="g10"
       transform="translate(125.1626,218)"><path
         d="M 0,0 V -115.455 L -49.97,-144.333 -50,-28.849 Z"
         style="fill:#282c33;fill-opacity:1;fill-rule:nonzero;stroke:none"
         id="path12" /></g><g
       id="g14"
       transform="translate(175.1626,131.4238)"><path
         d="m 0,0 v -55.946 l -50,-0.031 v 27.098 z"
         style="fill:#282c33;fill-opacity:1;fill-rule:nonzero;stroke:none"
         id="path16" /></g><g
       id="g18"
       transform="translate(225.2158,205.4546)"><path
         d="m 0,0 h 29.456 v -106.912 h 52.91 v -23.091 H 0 Z"
         style="fill:#282c33;fill-opacity:1;fill-rule:nonzero;stroke:none"
         id="path20" /></g><g
       id="g22"><g
         id="g24"
         clip-path="url(#clipPath28)"><g
           id="g30"
           transform="translate(316.6704,109.2695)"><path
             d="M 0,0 V 61.275 H 26.183 V 3.637 c 0,-12.909 5.273,-19.092 16.546,-19.092 11.091,0 19.818,6.91 19.818,20.91 v 55.82 H 88.73 V -33.818 H 62.547 v 14.909 C 57.638,-28.546 48.001,-35.818 32.364,-35.818 13.818,-35.818 0,-24.91 0,0"
             style="fill:#282c33;fill-opacity:1;fill-rule:nonzero;stroke:none"
             id="path32" /></g><g
           id="g34"
           transform="translate(417.3965,121.8164)"><path
             d="M 0,0 V 1.454 C 0,32.182 22.001,50.91 49.093,50.91 71.094,50.91 91.458,41.273 93.821,14 H 68.911 C 67.094,25.091 60.366,30.182 49.639,30.182 36.002,30.182 26.91,20 26.91,1.817 V 0.363 c 0,-19.092 8.546,-28.91 23.274,-28.91 10.545,0 19.091,6.182 20.364,18.364 H 94.367 C 92.912,-32.729 76.548,-48.365 48.911,-48.365 21.092,-48.365 0,-31.093 0,0"
             style="fill:#282c33;fill-opacity:1;fill-rule:nonzero;stroke:none"
             id="path36" /></g><path
           d="m 523.576,170.544 h 26.183 V 75.451 h -26.183 z m -2,27.274 c 0,8.182 6.546,14.364 14.909,14.364 8.546,0 15.092,-6.182 15.092,-14.364 0,-8.182 -6.546,-14.364 -15.092,-14.364 -8.363,0 -14.909,6.182 -14.909,14.364"
           style="fill:#282c33;fill-opacity:1;fill-rule:nonzero;stroke:none"
           id="path38" /><g
           id="g40"
           transform="translate(635.3945,122.543)"><path
             d="M 0,0 V 1.455 C 0,20.364 -8.364,30.001 -22.729,30.001 -37.456,30.001 -45.638,20 -45.638,1.091 v -1.454 c 0,-18.91 9.091,-28.184 22.182,-28.184 C -9.637,-28.547 0,-19.273 0,0 m -72.548,-0.909 v 1.454 c 0,31.274 18,49.639 41.819,49.639 15.274,0 24.728,-6.728 30.001,-16.365 V 91.094 H 25.455 V -47.092 H -0.728 v 15.819 c -4.909,-9.637 -16.545,-17.819 -30.546,-17.819 -23.091,0 -41.274,16.545 -41.274,48.183"
             style="fill:#282c33;fill-opacity:1;fill-rule:nonzero;stroke:none"
             id="path42" /></g></g></g></g></svg>
