<?xml version="1.0" encoding="UTF-8" standalone="no"?>
<!-- Created with Inkscape (http://www.inkscape.org/) -->

<svg
   version="1.1"
   id="svg68686"
   xml:space="preserve"
   width="2082.8933"
   height="280.50732"
   viewBox="0 0 2082.8933 280.50732"
   sodipodi:docname="ChaosNative_long_black.svg"
   inkscape:version="1.1.1 (3bf5ae0d25, 2021-09-20)"
   xmlns:inkscape="http://www.inkscape.org/namespaces/inkscape"
   xmlns:sodipodi="http://sodipodi.sourceforge.net/DTD/sodipodi-0.dtd"
   xmlns="http://www.w3.org/2000/svg"
   xmlns:svg="http://www.w3.org/2000/svg"><defs
     id="defs68690" /><sodipodi:namedview
     id="namedview68688"
     pagecolor="#ffffff"
     bordercolor="#666666"
     borderopacity="1.0"
     inkscape:pageshadow="2"
     inkscape:pageopacity="0.0"
     inkscape:pagecheckerboard="0"
     showgrid="false"
     fit-margin-top="0"
     fit-margin-left="0"
     fit-margin-right="0"
     fit-margin-bottom="0"
     inkscape:zoom="0.54395489"
     inkscape:cx="1041.4467"
     inkscape:cy="-176.48522"
     inkscape:window-width="1920"
     inkscape:window-height="1010"
     inkscape:window-x="-6"
     inkscape:window-y="-6"
     inkscape:window-maximized="1"
     inkscape:current-layer="g68692" /><g
     id="g68692"
     inkscape:groupmode="layer"
     inkscape:label="ink_ext_XXXXXX"
     transform="matrix(1.3333333,0,0,-1.3333333,-6.8366453e-6,280.5089)"><g
       id="g68940"><path
         d="m 149.373,154.413 c -4.371,1.263 -10.264,2.526 -17.304,2.82 -3.755,0.156 -10.561,0.151 -18.748,-1.635 -3.744,-0.816 -14.8472,-3.549 -26.3425,-11.441 C 64.7352,128.885 57.9277,105.895 56.923,102.309 55.5594,97.4398 50.8672,78.8762 58.2414,57.573 60.3004,51.625 63.1133,45.9461 66.6281,40.6691 L 15.002,33.5539 c -0.4133,-0.0598 -0.8247,-0.0758 -1.2368,-0.057 -2.6922,0.1191 -5.1195,1.8422 -6.06637,4.45 -1.09258,3.0011 0.0625,6.3609 2.77537,8.0543 L 48.0043,69.4531 5.06641,80.668 C 1.97383,81.473 -0.133984,84.3281 0.00664063,87.518 0.147656,90.709 2.49688,93.366 5.65039,93.8949 L 49.4094,101.281 14.093,127.95 c -2.5532,1.926 -3.4075,5.374 -2.0547,8.266 1.3555,2.899 4.5621,4.519 7.6597,3.732 l 43.2665,-9.912 -22.4633,38.226 c -1.6219,2.759 -1.0938,6.271 1.2683,8.424 2.361,2.167 5.902,2.368 8.5114,0.518 l 36.1464,-25.716 -6.0742,43.916 c -0.4363,3.164 1.3949,6.201 4.3996,7.294 3.0106,1.091 6.3664,-0.057 8.061,-2.773 l 23.4853,-37.486 11.225,42.884 c 0.805,3.089 3.662,5.193 6.857,5.052 3.195,-0.141 5.855,-2.49 6.385,-5.637 l 7.512,-43.562 c 0.365,-2.254 0.73,-4.509 1.095,-6.763"
         style="fill:#ed1464;fill-opacity:1;fill-rule:nonzero;stroke:none;stroke-width:0.1"
         id="path68696" /><path
         d="m 66.5059,108.308 c 3.6554,8.412 8.5937,15.727 14.8144,21.947 6.2168,6.217 13.5695,11.156 22.0567,14.815 8.483,3.655 17.557,5.486 27.214,5.486 7.022,0 13.751,-1.097 20.191,-3.292 6.437,-2.194 12.472,-5.233 18.106,-9.108 5.631,-3.878 10.679,-8.525 15.143,-13.936 4.462,-5.415 8.156,-11.413 11.083,-17.997 L 176.021,93.4949 c -2.195,4.8281 -4.904,9.2891 -8.12,13.3871 -3.22,4.094 -6.804,7.681 -10.754,10.754 -3.951,3.073 -8.159,5.448 -12.62,7.133 -4.464,1.68 -9.036,2.523 -13.716,2.523 -6.441,0 -12.476,-1.245 -18.107,-3.73 -5.635,-2.49 -10.535,-5.854 -14.7048,-10.096 C 93.8293,109.22 90.5,104.32 88.0137,98.7609 85.5246,93.2 84.2824,87.3488 84.2824,81.2039 c 0,-6.1449 1.2422,-11.998 3.7313,-17.5578 2.4863,-5.5621 5.8156,-10.425 9.9855,-14.5953 4.1698,-4.1699 9.0698,-7.4617 14.7048,-9.8758 5.631,-2.4141 11.594,-3.6211 17.887,-3.6211 4.242,0 8.449,0.7313 12.619,2.1949 4.17,1.4602 8.192,3.5114 12.071,6.1453 3.875,2.634 7.424,5.7399 10.644,9.327 3.217,3.584 6.07,7.5719 8.56,11.9617 L 191.604,48.0641 C 184.58,37.0898 175.873,28.384 165.486,21.9469 155.096,15.507 143.464,12.291 130.591,12.291 c -9.657,0 -18.731,1.8281 -27.214,5.486 -8.4872,3.6558 -15.8399,8.5941 -22.0567,14.814 -6.2207,6.218 -11.159,13.5328 -14.8144,21.9481 -3.659,8.4121 -5.4871,17.3718 -5.4871,26.8839 0,9.509 1.8281,18.47 5.4871,26.885"
         style="fill:#231f20;fill-opacity:1;fill-rule:nonzero;stroke:none;stroke-width:0.1"
         id="path68698" /><path
         d="m 322.626,66.7191 h -70.011 v 22.386 h 70.011 v 60.7929 h 23.922 V 12.9488 H 322.626 Z M 219.914,149.898 h 23.484 V 12.9488 H 219.914 V 149.898"
         style="fill:#231f20;fill-opacity:1;fill-rule:nonzero;stroke:none;stroke-width:0.1"
         id="path68700" /><path
         d="M 440.699,163.286 515.539,12.9488 H 406.682 l 15.363,22.6051 h 55.087 L 440.699,110.613 392.197,12.9488 h -26.995 l 75.497,150.3372"
         style="fill:#231f20;fill-opacity:1;fill-rule:nonzero;stroke:none;stroke-width:0.1"
         id="path68702" /><path
         d="m 542.203,67.9258 c 1.536,-4.3168 3.694,-8.4496 6.475,-12.3996 2.777,-3.95 6.107,-7.5371 9.985,-10.7543 3.875,-3.2199 8.231,-5.9258 13.059,-8.1199 L 556.798,17.777 c -6.145,3.2171 -11.707,7.096 -16.68,11.632 -4.975,4.534 -9.217,9.548 -12.729,15.034 -3.511,5.4859 -6.22,11.3371 -8.12,17.5582 -1.904,6.2156 -2.853,12.6187 -2.853,19.2027 0,9.3621 1.79,18.2512 5.377,26.6661 3.583,8.412 8.483,15.726 14.704,21.947 6.217,6.217 13.57,11.154 22.057,14.813 8.484,3.656 17.63,5.488 27.433,5.488 9.658,0 18.727,-1.832 27.214,-5.488 8.485,-3.659 15.837,-8.596 22.057,-14.813 6.218,-6.221 11.155,-13.535 14.814,-21.947 3.656,-8.4149 5.488,-17.304 5.488,-26.6661 0,-6.732 -1.026,-13.2051 -3.074,-19.423 -2.05,-6.2207 -4.937,-12.0707 -8.668,-17.5579 -3.731,-5.4859 -8.196,-10.5 -13.388,-15.0332 C 625.234,24.6531 619.491,20.85 613.201,17.777 l -12.728,19.3128 c 4.533,2.1961 8.778,4.8641 12.728,8.0114 3.951,3.1449 7.353,6.6179 10.206,10.425 2.853,3.8027 5.082,7.8629 6.694,12.1808 1.608,4.3141 2.414,8.741 2.414,13.2782 0,6.1437 -1.244,11.9949 -3.731,17.557 -2.49,5.5588 -5.853,10.4248 -10.095,14.5948 -4.246,4.17 -9.184,7.496 -14.815,9.986 -5.634,2.486 -11.522,3.731 -17.667,3.731 -6.44,0 -12.437,-1.245 -17.997,-3.731 -5.561,-2.49 -10.462,-5.816 -14.704,-9.986 -4.245,-4.17 -7.571,-9.036 -9.985,-14.5948 -2.415,-5.5621 -3.622,-11.4133 -3.622,-17.557 0,-4.3903 0.768,-8.7454 2.304,-13.0594"
         style="fill:#231f20;fill-opacity:1;fill-rule:nonzero;stroke:none;stroke-width:0.1"
         id="path68704" /><path
         d="m 754.538,35.334 c 5.998,0 10.388,1.6469 13.168,4.939 2.778,3.2918 4.17,7.4961 4.17,12.6188 0,4.3902 -1.282,8.0832 -3.84,11.0844 -2.562,2.9968 -6.694,5.0816 -12.4,6.2547 v 22.6043 c 5.411,0 10.568,-1.0622 15.473,-3.1813 4.9,-2.123 9.179,-5.0141 12.838,-8.6687 3.656,-3.659 6.584,-7.9012 8.779,-12.7301 2.195,-4.8281 3.292,-9.952 3.292,-15.3633 0,-6.0008 -0.953,-11.45 -2.853,-16.3496 -1.903,-4.9043 -4.499,-9.1082 -7.791,-12.6203 -3.292,-3.511 -7.133,-6.2199 -11.522,-8.1199 -4.39,-1.9032 -8.998,-2.8532 -13.826,-2.8532 H 677.724 V 35.334 Z m -37.968,92.178 c -5.853,0 -10.17,-1.683 -12.949,-5.048 -2.78,-3.367 -4.17,-7.537 -4.17,-12.509 0,-4.538 1.28,-8.306 3.841,-11.303 2.559,-3.0008 6.694,-5.086 12.401,-6.2551 v -22.386 c -5.563,0 -10.754,1.0602 -15.583,3.1821 -4.829,2.1199 -9.074,5.0109 -12.729,8.6699 -3.659,3.6551 -6.55,7.9 -8.669,12.7281 -2.123,4.8281 -3.183,9.949 -3.183,15.364 0,5.997 0.951,11.446 2.854,16.35 1.899,4.901 4.461,9.108 7.681,12.619 3.216,3.512 6.985,6.217 11.302,8.12 4.315,1.901 8.961,2.854 13.937,2.854 h 82.52 V 127.512 H 716.57"
         style="fill:#231f20;fill-opacity:1;fill-rule:nonzero;stroke:none;stroke-width:0.1"
         id="path68706" /><path
         d="M 845.177,118.075 V 12.9488 H 821.693 V 149.898 H 852.64 L 925.503,45.2109 V 149.898 h 23.922 V 12.9488 h -29.848 l -74.4,105.1262"
         style="fill:#231f20;fill-opacity:1;fill-rule:nonzero;stroke:none;stroke-width:0.1"
         id="path68708" /><path
         d="m 1043.57,163.286 74.84,-150.3372 h -108.85 l 15.36,22.6051 h 55.09 l -36.44,75.0591 -48.499,-97.6642 h -26.994 l 75.493,150.3372"
         style="fill:#231f20;fill-opacity:1;fill-rule:nonzero;stroke:none;stroke-width:0.1"
         id="path68710" /><path
         d="m 1223.1,149.898 v -22.386 h -47.19 V 12.9488 h -23.7 V 127.512 h -46.53 v 22.386 h 117.42"
         style="fill:#231f20;fill-opacity:1;fill-rule:nonzero;stroke:none;stroke-width:0.1"
         id="path68712" /><path
         d="m 1247.68,149.898 h 23.48 V 12.9488 h -23.48 V 149.898"
         style="fill:#231f20;fill-opacity:1;fill-rule:nonzero;stroke:none;stroke-width:0.1"
         id="path68714" /><path
         d="M 1364,0.00117188 1289.38,150.336 h 27.21 l 47.41,-97.663 48.06,97.663 h 27.65 L 1364,0.00117188"
         style="fill:#231f20;fill-opacity:1;fill-rule:nonzero;stroke:none;stroke-width:0.1"
         id="path68716" /><path
         d="m 1560.86,89.1051 v -22.386 h -69.36 v 22.386 z M 1457.93,12.9488 V 149.898 h 104.24 v -22.386 h -80.76 V 35.334 h 80.76 V 12.9488 h -104.24"
         style="fill:#231f20;fill-opacity:1;fill-rule:nonzero;stroke:none;stroke-width:0.1"
         id="path68718" /></g></g></svg>
